<svg xmlns="http://www.w3.org/2000/svg" viewBox="0 0 92.65 55.94" id="jacket"><g data-name="Layer 2"><g data-name="Шар 1"><path fill="#231300" d="m92.43 35.44-2.91-2A9.86 9.86 0 0 0 85.09 27c.14-3.41-4.32-6.43-5.33-7.07a7.37 7.37 0 0 0-5.41-5.85c-1-5.71-5.71-6-6.73-5.95l-12.84-3V1.69a.46.46 0 0 0-.18-.38.31.31 0 0 0-.2-.2c-7.13-2.47-17.17-.07-17.59 0a.3.3 0 0 0-.2.14.48.48 0 0 0-.2.4v3.51l-11.83 3c-1.57.1-5.38.88-6.25 5.93a7.39 7.39 0 0 0-5.41 5.85c-1 .64-5.47 3.66-5.33 7.07a9.89 9.89 0 0 0-4.47 6.39l-2.91 2a.5.5 0 0 0-.13.68L3.16 41a.52.52 0 0 0 .42.24.49.49 0 0 0 .26-.08L7 39.18c6.88-1.27 14.42-6 18.67-8.93a10 10 0 0 0-.58 3.44c0 3 1.19 5.5 2.89 6.43a.92.92 0 0 0 .21.09c-1.48 1-2.48 3.2-2.48 5.82 0 3.31 1.61 6 3.75 6.35v3.06a.5.5 0 0 0 .5.5h32.8a.5.5 0 0 0 .5-.5v-3.06C65.4 52 67 49.33 67 46c0-2.62-1-4.82-2.47-5.82l-.17-.11c1.69-.94 2.86-3.42 2.86-6.41a9.84 9.84 0 0 0-.63-3.55l-.08-.21c4.14 2.94 12 7.92 19.11 9.25l3.18 1.93a.49.49 0 0 0 .26.08.52.52 0 0 0 .42-.24l3.08-4.83a.5.5 0 0 0-.13-.65zM37.37 2.35a21.68 21.68 0 0 0 5.52.9L44 7.18a16.38 16.38 0 0 1-6.62-1.92zM1.18 36l2.26-1.6.36.6-2.3 1.49zm2.56 4-.66-1 1.51-.9a.35.35 0 1 0-.36-.6l-1.52.91-.84-1.3 2.31-1.54 2 3zm3.33-1.85-3-4.58a9 9 0 0 1 4-5.76A15.94 15.94 0 0 1 12 33.33a.36.36 0 0 0 .33.23h.12a.34.34 0 0 0 .21-.45 16.48 16.48 0 0 0-4.06-5.83.46.46 0 0 0 0-.05c-.38-2.94 4-5.87 4.86-6.44a18.73 18.73 0 0 1 4.06 4.5.36.36 0 0 0 .3.16.31.31 0 0 0 .18-.05.34.34 0 0 0 .11-.48 19.2 19.2 0 0 0-4.23-4.69 6.27 6.27 0 0 1 5-5.21 10.85 10.85 0 0 1 2.82 3.18.37.37 0 0 0 .32.19.28.28 0 0 0 .15 0 .34.34 0 0 0 .16-.47 11.33 11.33 0 0 0-3-3.4c.74-4.86 4.4-5.31 5.55-5.33h.09c.85 1.38 5.32 9.25 3.42 17.94l-.12.06-.06.05-.87.66-.32.24c-3.55 2.52-12.28 8.5-19.95 10.01zM26.72 46c0-2.68 1.43-5.24 3-5.62h8.59a.34.34 0 0 0 .35-.35.35.35 0 0 0-.35-.35h-9.19c-1.65-.41-3-3.12-3-6a7.54 7.54 0 0 1 1.55-4.86l1-.79.35-.27a.23.23 0 0 0 .1-.1h3.67a.34.34 0 0 0 .35-.35.35.35 0 0 0-.35-.35h-3.43v-.06A23.8 23.8 0 0 0 29 16.61h15.25a.35.35 0 0 0 .35-.35.35.35 0 0 0-.35-.35H28.84a29 29 0 0 0-3-7.06l10.95-2.77a17.83 17.83 0 0 0 8 2.15v43.21H30c-1.76 0-3.28-2.44-3.28-5.44zm5.76 8.91h-2v-2.5h2zm6 0H35.6v-1.3a.35.35 0 1 0-.7 0v1.3h-1.72v-2.5h5.3zm.7 0v-2.5h3.3v1.2a.36.36 0 0 0 .35.36.35.35 0 0 0 .35-.36v-1.2h1.63v2.45zM46 7.44a.7.7 0 0 0-.47-.17.76.76 0 0 0-.46.16l-.07-.2-1.27-4.67a.47.47 0 0 0-.23-.3.49.49 0 0 0-.39-.05c-.78.22-3.05-.21-4.86-.67 2.8-.54 9.56-1.54 14.9-.07-1.85.48-4.31 1-5.13.74a.46.46 0 0 0-.38.05.48.48 0 0 0-.24.3l-1.31 4.66zm7.73-5.09v2.82a18.46 18.46 0 0 1-6.61 2l1.09-3.9a21.68 21.68 0 0 0 5.55-.92zM52 54.94h-3.23v-1.3a.35.35 0 0 0-.35-.35.35.35 0 0 0-.35.35v1.3h-1.76v-2.5H52zm6.5 0h-5.8v-2.5h2.2v1.2a.35.35 0 1 0 .7 0v-1.2h2.9zm3.78 0h-3.1v-2.5h3.08zm.91-15.23h-8.88a.35.35 0 0 0-.35.35.34.34 0 0 0 .35.35h9.19C64.92 41 66 43.55 66 46c0 2.93-1.52 5.41-3.31 5.41H46.31V14.3h.19a1.6 1.6 0 0 0 1.4-.8.37.37 0 0 0 0-.29l-1.62-5-.18-.56h.09a.66.66 0 0 1 .09.34v.19a19.16 19.16 0 0 0 7.87-2.13L66.7 9a28.87 28.87 0 0 0-2.9 7H47.12a.35.35 0 0 0-.34.35.34.34 0 0 0 .34.35h16.5a23.83 23.83 0 0 0-.34 10.29H60.7a.35.35 0 0 0-.35.35.34.34 0 0 0 .35.35h2.78a.42.42 0 0 0 .09.1l.08.06h.06v.06l.13.11c.16.16.39.45.47.52l.07.06a7.26 7.26 0 0 1 1.79 5.12c.05 2.87-1.37 5.61-3 5.99zM46.31 13.59v-3.11l.9 2.79a.84.84 0 0 1-.71.34zm39.27 24.56c-9.18-1.81-19.88-10-21.23-11.08-1.9-8.69 2.57-16.56 3.41-17.94 1.07 0 4.84.36 5.6 5.33a11.61 11.61 0 0 0-3 3.4.35.35 0 0 0 .16.47.29.29 0 0 0 .15 0 .36.36 0 0 0 .32-.19A10.84 10.84 0 0 1 73.84 15a6.28 6.28 0 0 1 4.94 5.21 19.09 19.09 0 0 0-4.23 4.68.35.35 0 0 0 .11.48.31.31 0 0 0 .18.05.35.35 0 0 0 .3-.16 18.92 18.92 0 0 1 4.06-4.5c.86.55 5.24 3.49 4.86 6.44a.42.42 0 0 0 0 .05A16.48 16.48 0 0 0 80 33.09a.35.35 0 0 0 .21.45h.12a.36.36 0 0 0 .33-.23 16.18 16.18 0 0 1 3.83-5.52 9 9 0 0 1 4 5.76zm4.35.23-1.52-.91a.35.35 0 0 0-.48.12.36.36 0 0 0 .12.48l1.51.9-.66 1-2.39-1.45 2-3 2.31 1.54zm1.21-1.89L88.84 35l.36-.55L91.46 36z"></path><path fill="#231300" d="M46.31 8v.19l-.18-.56h.09a.66.66 0 0 1 .09.37z"></path></g></g></svg>