<svg xmlns="http://www.w3.org/2000/svg" enable-background="new 0 0 47.5 47.5" viewBox="0 0 47.5 47.5" id="jeans"><path fill="#3b88c3" d="M0 0h-10.182v-4.568l-6.181-29.114L-8.636-36l6.409 23.182L0 0Z" transform="matrix(1.25 0 0 -1.25 26.477 1.25)"></path><path fill="#3b88c3" d="M0 0h10.182v-4.568l6.181-29.114L8.636-36 2.227-12.818 0 0Z" transform="matrix(1.25 0 0 -1.25 21.023 1.25)"></path><path fill="#269" d="M27 33H11v2h16v-2z" transform="matrix(1.25 0 0 -1.25 0 47.5)"></path><path fill="#269" d="M0 0h-2l-4 2H4L0 0Z" transform="matrix(1.25 0 0 -1.25 25 16.25)"></path><path fill="#269" d="M13 34h2v3h-2v-3zM23 34h2v3h-2v-3zM17 26h2v7h-2v-7z" transform="matrix(1.25 0 0 -1.25 0 47.5)"></path></svg>