<svg xmlns="http://www.w3.org/2000/svg" data-name="Layer 1" viewBox="0 0 512 512" id="rain-boots"><path fill="#8b8891" d="M496 7.52q-2.1 62.145-4.21 124.28c-3.06 90.22-27.73 178.31-27.73 268.73v89.07a15.11 15.11 0 0 1-15.11 15.11H340.24a15.104 15.104 0 0 1-10.69-4.42c-3.43-3.44-4-7.7-4.42-10.69a25.568 25.568 0 0 1 .37-9.1q-13.5-.495-27-1-10.995.015-22 .04s-3.33 16.66-5 25h-35q-3.105-11.055-6.22-22.1H191.5q-1.995 11.04-4 22.1h-29q-3.24-9.825-6.47-19.63c-15.91-.13-21.81-.26-37.71-.39q-2.175 7.29-4.34 14.59c-2.66 4.3-38.69-9.29-43.03-11.1-18.7-7.8-42.29-19.91-47.67-41.38a41.341 41.341 0 0 1 2.01-25.05 56.255 56.255 0 0 1 17-23.04c1.07-.87 2.16-1.68 3.27-2.44 18.88-12.92 40.73-7.87 61.95-5.69 39.39 4.06 82.71-2.69 111.82-31.73 35.99-35.91 37.02-80.15 36.53-127.41 0-.01-1.57-149.18-2.36-223.77q61.575-.105 123.12-.1 61.68 0 123.38.12Z"></path><path fill="#58565d" d="M496 7.52q-1.32 39.27-2.66 78.53l-.51 15a752.205 752.205 0 0 1-121.04 10.89q-3.135.015-6.27.02a751.652 751.652 0 0 1-115.01-8.87c-.05-5.03-.11-10.07-.16-15.08-.31-29.51-.61-58.31-.85-80.51q61.575-.105 123.12-.1 61.68 0 123.38.12zm-31.94 400.95v81.13a15.11 15.11 0 0 1-15.11 15.11H340.24a15.104 15.104 0 0 1-10.69-4.42c-3.43-3.44-4-7.7-4.42-10.69a25.568 25.568 0 0 1 .37-9.1q-13.5-.495-27-1-10.995.015-22 .04s-3.33 16.66-5 25h-35q-3.105-11.055-6.22-22.1H191.5q-1.995 11.04-4 22.1h-29q-3.24-9.825-6.47-19.63c-15.91-.13-21.81-.26-37.71-.39q-2.175 7.29-4.34 14.59c-2.66 4.3-38.69-9.29-43.03-11.1-18.7-7.8-42.29-19.91-47.67-41.38a41.341 41.341 0 0 1 2.01-25.05 56.255 56.255 0 0 1 17-23.04l.21-.04c27.98 20.2 53.45 29.75 70.7 34.64 48.38 13.71 93.16 8.24 125.9 3.92 13.7-1.81 27.32-4.03 40.92-6.41 37.66-6.58 61.8-10.81 72.97-12.79 25.84-4.59 63.78-9.36 115.07-9.39z"></path><path fill="#2c2b2d" d="M493.79 100.89c-.32.06-.64.11-.96.16a752.205 752.205 0 0 1-121.04 10.89q-3.135.015-6.27.02a751.652 751.652 0 0 1-115.01-8.87l-1.17-.18a7.495 7.495 0 0 1 1.01-14.9 6.452 6.452 0 0 1 1.31.08 737.171 737.171 0 0 0 120 8.85 736.023 736.023 0 0 0 119.55-10.83 7.266 7.266 0 0 1 2.13-.06 7.5 7.5 0 0 1 .45 14.84Z"></path><path fill="#2c2b2d" d="M448.947 512.214H340.24a22.468 22.468 0 0 1-15.99-6.624c-5.185-5.185-6.068-11.495-6.542-14.885q-.21-1.5-.284-2.999L298.366 487l-15.716.026-3.796 18.98a7.5 7.5 0 0 1-7.354 6.03h-35a7.499 7.499 0 0 1-7.219-5.467l-4.683-16.631h-26.833l-2.885 15.934a7.5 7.5 0 0 1-7.38 6.164h-29a7.5 7.5 0 0 1-7.123-5.151l-4.788-14.52c-5.23-.05-9.367-.1-13.506-.15-4.052-.048-8.104-.097-13.186-.146l-2.728 9.179a7.494 7.494 0 0 1-.808 1.803c-4.037 6.542-12.73 5.2-29.5-.039-9.716-3.034-20.106-6.956-22.801-8.08-21.013-8.766-45.918-21.971-52.054-46.482a48.782 48.782 0 0 1 2.292-29.582 64.071 64.071 0 0 1 23.024-28.954c18.64-12.76 39.751-10.203 58.376-7.95 2.83.343 5.755.697 8.586.989 25.76 2.655 73.75 2.342 105.746-29.586 32.711-32.64 34.86-71.16 34.325-122.017-.002-.306-1.02-96.989-1.826-173.518L242 7.58A7.5 7.5 0 0 1 249.487 0a66960.596 66960.596 0 0 1 246.527.022 7.5 7.5 0 0 1 7.482 7.754l-4.215 124.277c-1.443 42.563-7.72 85.143-13.789 126.322-6.848 46.468-13.93 94.518-13.93 142.158V489.6a22.64 22.64 0 0 1-22.615 22.615ZM298.433 472c.097 0 .253.002.344.005l27 1a7.5 7.5 0 0 1 7.048 9.104 18.167 18.167 0 0 0-.271 6.449c.408 2.922.784 4.907 2.302 6.426a7.564 7.564 0 0 0 5.384 2.23h108.707a7.623 7.623 0 0 0 7.614-7.615v-89.066c0-48.739 7.165-97.342 14.092-144.345 6.01-40.768 12.222-82.924 13.636-124.643l3.953-116.538a66969.881 66969.881 0 0 0-231.163-.02l.45 42.687 1.826 173.597c.555 52.71-1.944 96.008-38.73 132.714-26.968 26.91-68.824 38.946-117.88 33.889a503.325 503.325 0 0 1-8.849-1.019c-17.551-2.123-34.127-4.13-48.101 5.436a48.712 48.712 0 0 0-17.515 22.007 33.91 33.91 0 0 0-1.723 20.51c4.515 18.038 25.5 28.863 43.277 36.28 7.411 3.09 26.101 9.546 34.393 11.052l2.903-9.759a7.5 7.5 0 0 1 7.187-5.362h.063c7.964.066 13.424.132 18.884.198 5.443.066 10.886.131 18.826.197a7.5 7.5 0 0 1 7.061 5.15l4.773 14.472h17.311l2.885-15.934a7.5 7.5 0 0 1 7.38-6.164h38.777a7.499 7.499 0 0 1 7.22 5.467l4.683 16.63h23.172l3.794-18.97a7.5 7.5 0 0 1 7.341-6.03l21.931-.035ZM21.289 421.584Z"></path><path fill="#2c2b2d" d="M175.51 449.395a249.437 249.437 0 0 1-68.36-9.042 233.604 233.604 0 0 1-73.04-35.772 7.5 7.5 0 1 1 8.78-12.162 218.67 218.67 0 0 0 68.352 33.502c47.936 13.59 93.034 7.641 122.88 3.704 11.807-1.558 24.712-3.579 40.61-6.36 39.21-6.86 61.93-10.836 72.942-12.792 35.345-6.278 74.502-9.477 116.385-9.507h.005a7.5 7.5 0 0 1 .004 15c-41.007.03-79.286 3.15-113.771 9.276-11.03 1.96-33.759 5.937-72.98 12.799-16.11 2.818-29.212 4.87-41.234 6.455-16.364 2.159-37.138 4.899-60.573 4.899Z"></path></svg>